<svg xmlns="http://www.w3.org/2000/svg" width="160" height="160" viewBox="0 0 160 160">
  <defs>
    <linearGradient id="lg" x1="0" x2="1">
      <stop offset="0" stop-color="#06b6d4"/>
      <stop offset="1" stop-color="#7c3aed"/>
    </linearGradient>
  </defs>
  <rect width="160" height="160" rx="28" fill="url(#lg)" />
  <g transform="translate(24,26)" fill="#fff">
    <path d="M50 20c-8 0-14 6-14 14v28c0 8 6 14 14 14s14-6 14-14V34c0-8-6-14-14-14zm0 8c3 0 6 3 6 6v28c0 3-3 6-6 6s-6-3-6-6V34c0-3 3-6 6-6z"/>
    <rect x="8" y="76" width="84" height="10" rx="5" opacity="0.12"/>
  </g>
</svg>
